PathFileType	4	(x/y/z)	S09_PSF_T14
DataRate	CameraRate	NumFrames	NumMarkers	Units	OrigDataRate	OrigDataStartFrame	OrigNumFrames
240	240	5	51	mm	240	56	444
Frame#	Time	Sternum			R.Acromium			L.Acromium			Top.Head			R.ASIS			L.ASIS			R.PSIS			L.PSIS			R.Great.Tro			L.Great.Tro			R.Iliac.Crest			L.Iliac.Crest			V.Sacral			R.Thigh.Upper.Post			R.Thigh.Lower.Ant			R.Thigh.Lower.Post			R.Thigh.Upper.Ant			R.Knee.Lat			R.Knee.Med			R.Shank.Upper.Post			R.Shank.Lower.Ant			R.Shank.Lower.Post			R.Shank.Upper.Ant			R.Ankle.Lat			R.Ankle.Med			R.Heel.Upper			R.Heel.Med			R.Heel.Lat			R.Toe.Lat			R.Toe.Med			R.Toe.Tip			L.Thigh.Upper.Post			L.Thigh.Lower.Ant			L.Thigh.Lower.Post			L.Thigh.Upper.Ant			L.Knee.Lat			L.Knee.Med			L.Shank.Upper.Post			L.Shank.Lower.Ant			L.Shank.Lower.Post			L.Shank.Upper.Ant			L.Ankle.Lat			L.Ankle.Med			L.Heel.Upper			L.Heel.Med			L.Heel.Lat			L.Toe.Lat			L.Toe.Med			L.Toe.Tip			Cervical.Spine			Back			
		X1	Y1	Z1	X2	Y2	Z2	X3	Y3	Z3	X4	Y4	Z4	X5	Y5	Z5	X6	Y6	Z6	X7	Y7	Z7	X8	Y8	Z8	X9	Y9	Z9	X10	Y10	Z10	X11	Y11	Z11	X12	Y12	Z12	X13	Y13	Z13	X14	Y14	Z14	X15	Y15	Z15	X16	Y16	Z16	X17	Y17	Z17	X18	Y18	Z18	X19	Y19	Z19	X20	Y20	Z20	X21	Y21	Z21	X22	Y22	Z22	X23	Y23	Z23	X24	Y24	Z24	X25	Y25	Z25	X26	Y26	Z26	X27	Y27	Z27	X28	Y28	Z28	X29	Y29	Z29	X30	Y30	Z30	X31	Y31	Z31	X32	Y32	Z32	X33	Y33	Z33	X34	Y34	Z34	X35	Y35	Z35	X36	Y36	Z36	X37	Y37	Z37	X38	Y38	Z38	X39	Y39	Z39	X40	Y40	Z40	X41	Y41	Z41	X42	Y42	Z42	X43	Y43	Z43	X44	Y44	Z44	X45	Y45	Z45	X46	Y46	Z46	X47	Y47	Z47	X48	Y48	Z48	X49	Y49	Z49	X50	Y50	Z50	X51	Y51	Z51	

56	0.22917	NaN	NaN	NaN	-1427.2	1424.9	478.18	-1426.7	1424.5	164.27	-1417.4	1732.2	318.12	NaN	NaN	NaN	NaN	NaN	NaN	-1545.2	1026.3	352.51	-1532.4	1033.9	263.44	-1406.2	914.94	505.07	-1365.5	935.03	120.22	-1405.9	1081	480.33	-1426.1	1116.3	157.86	-1552.6	993.55	299.62	-1375.9	667.06	494.96	-1289.2	572.27	483.07	NaN	NaN	NaN	NaN	NaN	NaN	-1320.4	491.74	478.02	-1305.8	476.59	356.21	NaN	NaN	NaN	-1505.5	344.03	458.77	-1555.2	391.97	451.44	NaN	NaN	NaN	NaN	NaN	NaN	NaN	NaN	NaN	-1724.9	314.23	358.17	-1741	288.42	326.4	NaN	NaN	NaN	-1708.8	156.39	460.94	-1664.3	110.11	368.72	-1635.3	78.964	418.03	-1381.8	664.3	172.03	-1283.1	585.45	184.72	-1349.9	581.22	198.31	-1309.9	666.33	155.14	-1284.5	507.86	199.61	-1276.5	528.5	331.03	-1325.7	369.94	190.08	-1255.6	285.76	210.74	-1319.2	294.36	199.47	-1258.9	363.38	201.23	-1296.4	100.54	231.6	-1279.6	99.992	324.12	-1359.6	65.101	289.8	NaN	NaN	NaN	-1358.9	37.123	259.67	-1189.9	47.273	199.43	-1150.7	59.816	305.97	-1106.5	84.857	244.94	-1507.3	1475.2	333.28	-1544.6	1204.1	319.73
57	0.23333	NaN	NaN	NaN	-1421.7	1426	478.04	-1421.1	1425.7	164.18	-1411.8	1733.2	317.84	NaN	NaN	NaN	NaN	NaN	NaN	-1540.1	1027.4	352.01	-1527.3	1034.8	262.94	-1400.6	916.33	504.61	-1360.9	935.56	119.87	-1402.5	1082.8	480.13	-1421.2	1117.1	157.29	-1547.6	994.55	299.16	-1366	668.42	495.04	-1279.3	574.86	482.78	NaN	NaN	NaN	NaN	NaN	NaN	-1309.5	493.91	477.94	-1296	478.91	355.64	NaN	NaN	NaN	-1493.3	344.78	458.6	-1543.6	392.46	451.58	NaN	NaN	NaN	NaN	NaN	NaN	NaN	NaN	NaN	-1714	313.25	357.88	-1729.5	286.84	326.39	NaN	NaN	NaN	-1694.4	156.47	461.8	-1649.3	110.31	369.78	-1620.2	79.718	419.33	-1379	665.09	172.24	-1280.9	585.46	184.59	-1347.5	581.76	198.38	-1307.2	666.59	155.1	-1282.8	507.87	199.54	-1274.4	528.44	330.88	-1325.5	369.7	190.22	-1254.8	285.65	210.67	-1318.4	294.52	199.54	-1257.9	363.23	201.18	-1296.3	100.62	231.7	-1279.4	99.973	324.24	-1359.5	65.175	290.02	NaN	NaN	NaN	-1358.9	37.277	259.71	-1189.8	47.188	199.42	-1150.6	59.402	306.07	-1106.4	84.412	245.09	-1501.8	1476.4	333.21	-1539.6	1205.4	319.39
58	0.2375	NaN	NaN	NaN	-1416.2	1427.1	477.9	-1415.6	1426.9	164.09	-1406.1	1734.2	317.58	NaN	NaN	NaN	NaN	NaN	NaN	-1535.1	1028.5	351.51	-1522.3	1035.7	262.44	-1395	917.73	504.19	-1356.3	936.06	119.55	-1399.3	1084.7	479.94	-1416.3	1117.9	156.7	-1542.5	995.55	298.71	-1356.2	669.81	495.12	-1269.5	577.52	482.46	NaN	NaN	NaN	NaN	NaN	NaN	-1298.7	496.13	477.82	-1286	481.31	355.06	NaN	NaN	NaN	-1481.1	345.48	458.46	-1532.1	392.86	451.69	NaN	NaN	NaN	NaN	NaN	NaN	NaN	NaN	NaN	-1702.9	311.99	357.65	-1717.8	285	326.43	NaN	NaN	NaN	-1679.8	156.28	462.63	-1634.2	110.33	370.8	-1604.8	80.375	420.57	-1376.2	665.89	172.46	-1278.8	585.47	184.44	-1345.3	582.3	198.44	-1304.5	666.86	155.06	-1281.2	507.87	199.45	-1272.3	528.4	330.71	-1325.5	369.42	190.35	-1254	285.54	210.58	-1317.5	294.69	199.59	-1256.9	363.06	201.12	-1296.2	100.7	231.81	-1279.2	99.958	324.34	-1359.5	65.264	290.21	NaN	NaN	NaN	-1358.8	37.438	259.74	-1189.7	47.094	199.41	-1150.5	58.981	306.16	-1106.2	83.952	245.23	-1496.3	1477.6	333.14	-1534.6	1206.8	319.04
59	0.24167	NaN	NaN	NaN	-1410.7	1428.1	477.78	-1410	1428.1	164.01	-1400.5	1735.3	317.34	NaN	NaN	NaN	NaN	NaN	NaN	-1530.1	1029.5	351.01	-1517.2	1036.7	261.94	-1389.4	919.15	503.79	-1351.7	936.54	119.26	-1396.2	1086.6	479.73	-1411.3	1118.7	156.11	-1537.5	996.54	298.26	-1346.3	671.23	495.19	-1259.7	580.22	482.12	-1347.3	582.31	478.72	NaN	NaN	NaN	-1288	498.41	477.67	-1275.7	483.77	354.49	NaN	NaN	NaN	-1468.8	346.13	458.35	-1520.6	393.17	451.79	NaN	NaN	NaN	NaN	NaN	NaN	NaN	NaN	NaN	-1691.7	310.47	357.49	-1706	282.92	326.52	NaN	NaN	NaN	-1665.1	155.82	463.43	-1618.8	110.18	371.79	-1589.2	80.932	421.74	-1373.5	666.69	172.69	-1276.7	585.49	184.27	-1343.1	582.85	198.49	-1301.8	667.12	155.01	-1279.5	507.89	199.32	-1270.1	528.36	330.51	-1325.6	369.09	190.46	-1253.2	285.44	210.47	-1316.7	294.86	199.62	-1256.1	362.89	201.05	-1296	100.78	231.91	-1279	99.947	324.44	-1359.4	65.371	290.35	NaN	NaN	NaN	-1358.7	37.604	259.77	-1189.6	46.991	199.39	-1150.4	58.554	306.23	-1106	83.475	245.36	-1490.8	1478.8	333.08	-1529.6	1208.1	318.67
60	0.24583	NaN	NaN	NaN	-1405.2	1429.2	477.66	-1404.5	1429.3	163.93	-1394.8	1736.3	317.11	NaN	NaN	NaN	NaN	NaN	NaN	-1525	1030.6	350.53	-1512.1	1037.6	261.45	-1383.7	920.57	503.42	-1347.1	936.98	118.98	-1393	1088.4	479.52	-1406.3	1119.4	155.52	-1532.4	997.53	297.82	-1336.4	672.66	495.27	-1250.1	582.96	481.76	-1338.8	584	478.95	NaN	NaN	NaN	-1277.4	500.74	477.49	-1265.3	486.29	353.92	NaN	NaN	NaN	-1456.4	346.74	458.26	-1509	393.38	451.87	NaN	NaN	NaN	NaN	NaN	NaN	NaN	NaN	NaN	-1680.5	308.68	357.41	-1694	280.59	326.66	NaN	NaN	NaN	-1650.3	155.11	464.21	-1603.4	109.87	372.75	-1573.3	81.388	422.84	-1370.9	667.5	172.93	-1274.7	585.51	184.08	-1340.9	583.4	198.54	-1299.2	667.39	154.94	-1277.9	507.9	199.17	-1268	528.33	330.28	-1325.9	368.73	190.55	-1252.4	285.33	210.34	-1315.8	295.03	199.63	-1255.3	362.69	200.95	-1295.9	100.86	232	-1278.7	99.939	324.52	-1359.4	65.501	290.42	NaN	NaN	NaN	-1358.7	37.776	259.81	-1189.4	46.88	199.36	-1150.3	58.12	306.3	-1105.8	82.98	245.47	-1485.3	1479.9	333.03	-1524.6	1209.4	318.31
